<svg width="276" height="562" viewBox="0 0 276 562" fill="none" xmlns="http://www.w3.org/2000/svg">
<path d="M3.64693 362.5C-17.0635 253.987 59.1404 101.776 90.115 45.7771C97.8556 31.7828 111.79 22.6583 127.613 20.3365L262.052 0.609058C271.499 -0.777218 278.403 9.76816 273.455 17.9348C241.608 70.5034 164.341 211.204 181.147 314C191.472 377.158 242.19 455.86 265.225 489.057C270.871 497.192 267.563 508.611 258.36 512.269L140.183 559.247C125.579 565.052 108.95 560.735 99.5993 548.104C71.7922 510.543 16.3967 429.303 3.64693 362.5Z" fill="url(#paint0_linear_2013_114)" style=""/>
<defs>
<linearGradient id="paint0_linear_2013_114" x1="143.388" y1="-3" x2="143.388" y2="569" gradientUnits="userSpaceOnUse">
<stop stop-color="#DA4A43" style="stop-color:#DA4A43;stop-color:color(display-p3 0.8549 0.2902 0.2627);stop-opacity:1;"/>
<stop offset="1" stop-color="#EBA12A" style="stop-color:#EBA12A;stop-color:color(display-p3 0.9216 0.6314 0.1647);stop-opacity:1;"/>
</linearGradient>
</defs>
</svg>
