<svg width="405" height="479" viewBox="0 0 405 479" fill="none" xmlns="http://www.w3.org/2000/svg">
<path d="M51.6089 253.936C23.5532 177.379 9.05135 124.499 1.88809 94.092C-2.41425 75.8293 7.66006 57.8766 25.0242 50.7689L144.044 2.04997C160.488 -4.68135 179.4 6.60057 182.398 24.1147C187.409 53.3923 197.384 101.245 217 169.855C243.622 262.966 353.128 362.636 399.067 401.253C407.972 408.738 405.814 423.321 395.011 427.635L274.326 475.833C264.596 479.719 253.664 479.175 244.705 473.741C205.431 449.918 95.8703 374.714 51.6089 253.936Z" fill="url(#paint0_linear_2013_116)" style=""/>
<defs>
<linearGradient id="paint0_linear_2013_116" x1="148.674" y1="-4.78906" x2="264.149" y2="480.73" gradientUnits="userSpaceOnUse">
<stop stop-color="#D45768" style="stop-color:#D45768;stop-color:color(display-p3 0.8314 0.3412 0.4078);stop-opacity:1;"/>
<stop offset="1" stop-color="#E9982D" style="stop-color:#E9982D;stop-color:color(display-p3 0.9137 0.5961 0.1765);stop-opacity:1;"/>
</linearGradient>
</defs>
</svg>
