<svg width="495" height="315" viewBox="0 0 495 315" fill="none" xmlns="http://www.w3.org/2000/svg">
<path d="M135.677 241.271C51.6416 185.772 15.6482 125.088 2.36991 96.4741C-2.04854 86.9526 2.37932 76.271 11.6844 71.4133L144.36 2.14891C149.895 -0.740724 156.8 1.47082 159.938 6.86929C172.688 28.808 209.398 84.4138 286 149.855C329.083 186.66 425.806 218.463 483.385 235.069C497.45 239.126 498.645 259.392 485.037 264.788L365.888 312.035C360.369 314.224 354.403 315.018 348.529 314.155C317.283 309.566 210.883 290.939 135.677 241.271Z" fill="url(#paint0_linear_2013_117)" style=""/>
<defs>
<linearGradient id="paint0_linear_2013_117" x1="104.057" y1="-11.8438" x2="408.943" y2="348.839" gradientUnits="userSpaceOnUse">
<stop stop-color="#673975" style="stop-color:#673975;stop-color:color(display-p3 0.4039 0.2235 0.4588);stop-opacity:1;"/>
<stop offset="1" stop-color="#E9972C" style="stop-color:#E9972C;stop-color:color(display-p3 0.9137 0.5922 0.1725);stop-opacity:1;"/>
</linearGradient>
</defs>
</svg>
